<svg width="32" height="19" viewBox="0 0 32 19" fill="none" xmlns="http://www.w3.org/2000/svg">
<path d="M26.7311 11.6123C26.3972 11.1495 26.3224 10.681 26.5049 10.2064C26.9602 8.93993 33.5915 0.896364 30.829 0.896364C28.9307 0.922137 26.6479 0.896364 24.8279 0.896364C24.4901 0.980371 24.2715 1.16149 24.1347 1.52999C23.0705 4.03665 21.7682 7.09566 19.8596 9.06165C19.6085 9.26845 19.4519 9.25964 19.1659 9.18316C17.8271 7.74336 19.2546 2.81054 18.4405 0.861413C18.28 0.479885 17.9288 0.307561 17.5694 0.210524C15.7518 -0.231972 11.6006 0.0314159 10.9233 0.922137C10.7297 1.17677 10.7027 1.31572 10.8424 1.33858C11.4878 1.44258 11.9446 1.69137 12.2135 2.08472C12.7208 3.22583 13.0946 9.3043 11.6006 9.3043C10.1066 9.3043 7.69747 3.33894 7.03564 1.68524C6.85952 1.18731 6.41116 0.90185 5.93875 0.817586L1.51881 0.852113C0.741888 0.852113 0.307683 1.2436 0.583054 2.03232C2.88515 7.86963 7.92292 19.1843 15.6496 18.901C16.4236 18.901 17.7552 19.2046 18.3597 18.5191C19.1904 17.3933 18.1773 15.3882 19.6018 14.6235C19.9611 14.4282 20.3334 14.5919 20.6421 14.832C22.2266 16.0644 23.0679 18.2277 25.0219 18.8844C25.3655 19 25.6665 19.0289 25.925 18.9711L30.0544 18.9018C30.8211 18.9018 31.5763 18.5534 31.4177 17.6171C30.8156 15.6093 28.4167 13.5454 26.7311 11.6123Z" fill="#7027E2"/>
</svg>
