<svg width="29" height="28" viewBox="0 0 29 28" fill="none" xmlns="http://www.w3.org/2000/svg">
<path fill-rule="evenodd" clip-rule="evenodd" d="M12.7985 0.0501509C8.41592 0.739559 5.08888 2.81019 2.7356 6.31301C1.75589 7.77141 1.1248 9.26731 0.706191 11.1236C0.53395 11.8872 0.502807 12.319 0.500189 13.9752C0.49738 15.6862 0.523866 16.0458 0.714428 16.8917C1.08506 18.5361 1.70573 20.0647 2.57414 21.4718L2.89895 21.998L2.23456 24.4182C1.86916 25.7493 1.5453 26.903 1.51471 26.9822C1.4816 27.0681 1.51032 27.1263 1.5862 27.1272C1.65598 27.128 2.86591 26.829 4.27494 26.4626C6.76882 25.8145 6.84321 25.8011 7.08136 25.9562C7.57232 26.2758 9.40322 27.1156 10.1227 27.351C11.6507 27.8508 12.6152 27.9958 14.4356 27.9999C16.2982 28.0042 17.1146 27.8863 18.6886 27.3868C20.8997 26.6852 22.6428 25.6196 24.3568 23.9215C26.3899 21.9071 27.6282 19.6618 28.2436 16.8743C28.5188 15.6273 28.5839 13.3558 28.3829 12.0028C27.7096 7.46498 24.7931 3.46596 20.6735 1.43138C18.6922 0.453123 16.6001 -0.0207724 14.3562 0.000697832C13.6281 0.00766372 12.9272 0.0298735 12.7985 0.0501509ZM9.7355 6.31442C9.85647 6.36916 10.0117 6.50354 10.0805 6.61292C10.2937 6.95215 11.676 10.3296 11.676 10.5114C11.676 10.803 11.3448 11.348 10.7969 11.958C10.4343 12.3618 10.2727 12.6194 10.2724 12.7937C10.2713 13.4176 12.2058 15.7189 13.5924 16.7431C14.3855 17.329 16.2787 18.2968 16.6318 18.2968C16.8716 18.2968 17.2102 17.959 18.1085 16.8232C18.7014 16.0741 18.734 16.0487 19.0426 16.0984C19.2184 16.1268 20.1901 16.5599 21.202 17.0606L23.0421 17.9714L23.0733 18.4361C23.1439 19.4903 22.7472 20.4457 21.998 21.0259C20.8925 21.8814 19.5769 22.2339 18.2523 22.0293C16.6393 21.7802 13.98 20.6435 12.4711 19.5583C9.6065 17.4979 6.74226 13.8616 6.09697 11.4659C5.92905 10.8424 5.93671 9.63182 6.11297 8.95978C6.39285 7.89202 7.24284 6.72092 7.97887 6.38877C8.40264 6.1975 9.38525 6.15597 9.7355 6.31442Z" fill="#7027E2"/>
</svg>
